<?xml version="1.0" encoding="UTF-8" standalone="no"?>
<!DOCTYPE svg PUBLIC "-//W3C//DTD SVG 1.1//EN" "http://www.w3.org/Graphics/SVG/1.1/DTD/svg11.dtd">
<svg width="100%" height="100%" viewBox="0 0 3194 3548" version="1.1" xmlns="http://www.w3.org/2000/svg" xmlns:xlink="http://www.w3.org/1999/xlink" xml:space="preserve" xmlns:serif="http://www.serif.com/" style="fill-rule:evenodd;clip-rule:evenodd;stroke-linejoin:round;stroke-miterlimit:2;">
    <g transform="matrix(1,0,0,1,-401.771,-214.372)">
        <g transform="matrix(1,0,0,1,3337.65,2986.21)">
            <g id="BACKGROUND">
                <path d="M0,-1995.98L-1144.28,-2656.63C-1264.8,-2726.21 -1413.29,-2726.21 -1533.81,-2656.63L-2678.09,-1995.98C-2798.61,-1926.39 -2872.85,-1797.8 -2872.85,-1658.64L-2872.85,-337.337C-2872.85,-198.174 -2798.61,-69.581 -2678.09,0.001L-1533.81,660.651C-1413.29,730.233 -1264.8,730.233 -1144.28,660.651L0,0.001C120.519,-69.581 194.762,-198.174 194.762,-337.337L194.762,-1658.64C194.762,-1797.8 120.519,-1926.39 0,-1995.98" style="fill:rgb(0,145,234);fill-rule:nonzero;"/>
            </g>
        </g>
        <g transform="matrix(1,0,0,1,1998.6,3636.02)">
            <g id="OUTER-BORDER" serif:id="OUTER BORDER">
                <path d="M0,-3295.6C-57.233,-3295.6 -113.683,-3280.47 -163.249,-3251.86L-1307.53,-2591.21C-1357.1,-2562.59 -1398.42,-2521.27 -1427.04,-2471.7C-1455.65,-2422.14 -1470.78,-2365.68 -1470.78,-2308.45L-1470.78,-987.149C-1470.78,-929.916 -1455.65,-873.465 -1427.04,-823.9C-1398.42,-774.335 -1357.1,-733.011 -1307.53,-704.394L-163.249,-43.744C-113.683,-15.126 -57.233,0 0,0C57.233,0 113.683,-15.126 163.249,-43.744L1307.53,-704.394C1357.1,-733.011 1398.42,-774.335 1427.04,-823.9C1455.65,-873.465 1470.78,-929.916 1470.78,-987.149L1470.78,-2308.45C1470.78,-2365.68 1455.65,-2422.14 1427.04,-2471.7C1398.42,-2521.27 1357.1,-2562.59 1307.53,-2591.21L163.249,-3251.86C113.683,-3280.47 57.233,-3295.6 0,-3295.6M0,126.052C-79.329,126.052 -157.574,105.087 -226.275,65.421L-1370.56,-595.23C-1439.26,-634.894 -1496.54,-692.172 -1536.2,-760.873C-1575.87,-829.575 -1596.83,-907.82 -1596.83,-987.149L-1596.83,-2308.45C-1596.83,-2387.78 -1575.87,-2466.03 -1536.2,-2534.73C-1496.54,-2603.43 -1439.26,-2660.71 -1370.56,-2700.37L-226.275,-3361.02C-157.574,-3400.69 -79.329,-3421.65 0,-3421.65C79.33,-3421.65 157.574,-3400.69 226.275,-3361.02L1370.56,-2700.37C1439.26,-2660.71 1496.54,-2603.43 1536.2,-2534.73C1575.87,-2466.03 1596.83,-2387.78 1596.83,-2308.45L1596.83,-987.149C1596.83,-907.82 1575.87,-829.575 1536.2,-760.873C1496.54,-692.172 1439.26,-634.894 1370.56,-595.229L226.275,65.422C157.574,105.087 79.33,126.052 0,126.052" style="fill:rgb(45,62,80);fill-rule:nonzero;"/>
            </g>
        </g>
        <g id="TYPE">
            <g id="Lingó-Hack" serif:id="Lingó Hack" transform="matrix(1.0442,0,0,1.0442,284.852,-43.942)">
                <g transform="matrix(280.947,0,0,280.947,762.979,2838.52)">
                    <path d="M0.083,-0.7L0.245,-0.7L0.245,-0.132L0.596,-0.132L0.596,0L0.083,0L0.083,-0.7Z" style="fill:white;fill-rule:nonzero;"/>
                </g>
                <g transform="matrix(280.947,0,0,280.947,932.672,2838.52)">
                    <path d="M0.072,-0.538L0.228,-0.538L0.228,0L0.072,0L0.072,-0.538ZM0.15,-0.613C0.121,-0.613 0.098,-0.621 0.08,-0.638C0.062,-0.655 0.053,-0.675 0.053,-0.7C0.053,-0.725 0.062,-0.745 0.08,-0.762C0.098,-0.779 0.121,-0.787 0.15,-0.787C0.179,-0.787 0.202,-0.779 0.22,-0.763C0.238,-0.747 0.247,-0.727 0.247,-0.703C0.247,-0.677 0.238,-0.656 0.22,-0.639C0.202,-0.622 0.179,-0.613 0.15,-0.613Z" style="fill:white;fill-rule:nonzero;"/>
                </g>
                <g transform="matrix(280.947,0,0,280.947,1017.24,2838.52)">
                    <path d="M0.399,-0.546C0.466,-0.546 0.52,-0.526 0.561,-0.486C0.602,-0.446 0.622,-0.387 0.622,-0.308L0.622,0L0.466,0L0.466,-0.284C0.466,-0.327 0.457,-0.359 0.438,-0.38C0.419,-0.401 0.392,-0.411 0.357,-0.411C0.318,-0.411 0.286,-0.399 0.263,-0.375C0.24,-0.35 0.228,-0.314 0.228,-0.266L0.228,0L0.072,0L0.072,-0.538L0.221,-0.538L0.221,-0.475C0.242,-0.498 0.267,-0.515 0.298,-0.528C0.329,-0.54 0.362,-0.546 0.399,-0.546Z" style="fill:white;fill-rule:nonzero;"/>
                </g>
                <g transform="matrix(280.947,0,0,280.947,1213.06,2838.52)">
                    <path d="M0.627,-0.538L0.627,-0.09C0.627,0.009 0.601,0.082 0.55,0.13C0.499,0.178 0.424,0.202 0.325,0.202C0.273,0.202 0.224,0.196 0.177,0.183C0.13,0.17 0.092,0.152 0.061,0.128L0.123,0.016C0.146,0.035 0.174,0.049 0.209,0.06C0.244,0.071 0.278,0.077 0.313,0.077C0.367,0.077 0.407,0.065 0.433,0.04C0.458,0.016 0.471,-0.021 0.471,-0.07L0.471,-0.093C0.43,-0.048 0.374,-0.026 0.301,-0.026C0.252,-0.026 0.206,-0.037 0.166,-0.059C0.125,-0.08 0.092,-0.111 0.068,-0.15C0.044,-0.189 0.032,-0.235 0.032,-0.286C0.032,-0.337 0.044,-0.383 0.068,-0.422C0.092,-0.461 0.125,-0.492 0.166,-0.514C0.206,-0.535 0.252,-0.546 0.301,-0.546C0.379,-0.546 0.438,-0.52 0.479,-0.469L0.479,-0.538L0.627,-0.538ZM0.332,-0.154C0.373,-0.154 0.407,-0.166 0.434,-0.191C0.46,-0.215 0.473,-0.247 0.473,-0.286C0.473,-0.325 0.46,-0.357 0.434,-0.382C0.407,-0.406 0.373,-0.418 0.332,-0.418C0.291,-0.418 0.257,-0.406 0.23,-0.382C0.203,-0.357 0.19,-0.325 0.19,-0.286C0.19,-0.247 0.203,-0.215 0.23,-0.191C0.257,-0.166 0.291,-0.154 0.332,-0.154Z" style="fill:white;fill-rule:nonzero;"/>
                </g>
                <g transform="matrix(280.947,0,0,280.947,1409.72,2838.52)">
                    <path d="M0.328,0.008C0.271,0.008 0.221,-0.004 0.175,-0.028C0.131,-0.051 0.095,-0.084 0.07,-0.126C0.045,-0.168 0.032,-0.216 0.032,-0.269C0.032,-0.322 0.045,-0.37 0.07,-0.412C0.095,-0.454 0.131,-0.487 0.175,-0.51C0.221,-0.534 0.271,-0.546 0.328,-0.546C0.385,-0.546 0.435,-0.534 0.48,-0.51C0.525,-0.487 0.56,-0.454 0.585,-0.412C0.61,-0.37 0.623,-0.322 0.623,-0.269C0.623,-0.216 0.61,-0.168 0.585,-0.126C0.56,-0.084 0.525,-0.051 0.48,-0.028C0.435,-0.004 0.385,0.008 0.328,0.008ZM0.328,-0.12C0.368,-0.12 0.401,-0.134 0.427,-0.161C0.452,-0.188 0.465,-0.224 0.465,-0.269C0.465,-0.314 0.452,-0.35 0.427,-0.378C0.401,-0.405 0.368,-0.418 0.328,-0.418C0.288,-0.418 0.255,-0.405 0.229,-0.378C0.203,-0.35 0.19,-0.314 0.19,-0.269C0.19,-0.224 0.203,-0.188 0.229,-0.161C0.255,-0.134 0.288,-0.12 0.328,-0.12ZM0.37,-0.751L0.538,-0.751L0.357,-0.607L0.235,-0.607L0.37,-0.751Z" style="fill:white;fill-rule:nonzero;"/>
                </g>
                <g transform="matrix(280.947,0,0,280.947,1673.25,2838.52)">
                    <path d="M0.725,-0.7L0.725,0L0.563,0L0.563,-0.287L0.245,-0.287L0.245,0L0.083,0L0.083,-0.7L0.245,-0.7L0.245,-0.424L0.563,-0.424L0.563,-0.7L0.725,-0.7Z" style="fill:white;fill-rule:nonzero;"/>
                </g>
                <g transform="matrix(280.947,0,0,280.947,1900.25,2838.52)">
                    <path d="M0.618,-0.538L0.618,0L0.469,0L0.469,-0.062C0.43,-0.015 0.374,0.008 0.301,0.008C0.25,0.008 0.204,-0.003 0.164,-0.026C0.123,-0.049 0.09,-0.081 0.067,-0.123C0.044,-0.165 0.032,-0.214 0.032,-0.269C0.032,-0.324 0.044,-0.373 0.067,-0.415C0.09,-0.457 0.123,-0.489 0.164,-0.512C0.204,-0.535 0.25,-0.546 0.301,-0.546C0.37,-0.546 0.423,-0.524 0.462,-0.481L0.462,-0.538L0.618,-0.538ZM0.328,-0.12C0.367,-0.12 0.4,-0.134 0.426,-0.161C0.452,-0.188 0.465,-0.224 0.465,-0.269C0.465,-0.314 0.452,-0.35 0.426,-0.378C0.4,-0.405 0.367,-0.418 0.328,-0.418C0.288,-0.418 0.255,-0.405 0.229,-0.378C0.203,-0.35 0.19,-0.314 0.19,-0.269C0.19,-0.224 0.203,-0.188 0.229,-0.161C0.255,-0.134 0.288,-0.12 0.328,-0.12Z" style="fill:white;fill-rule:nonzero;"/>
                </g>
                <g transform="matrix(280.947,0,0,280.947,2094.11,2838.52)">
                    <path d="M0.332,0.008C0.275,0.008 0.223,-0.004 0.178,-0.028C0.132,-0.051 0.096,-0.084 0.07,-0.126C0.045,-0.168 0.032,-0.216 0.032,-0.269C0.032,-0.322 0.045,-0.37 0.07,-0.412C0.096,-0.454 0.132,-0.487 0.178,-0.51C0.223,-0.534 0.275,-0.546 0.332,-0.546C0.389,-0.546 0.438,-0.534 0.481,-0.51C0.523,-0.487 0.554,-0.453 0.573,-0.409L0.452,-0.344C0.424,-0.393 0.384,-0.418 0.331,-0.418C0.29,-0.418 0.257,-0.405 0.23,-0.378C0.203,-0.351 0.19,-0.315 0.19,-0.269C0.19,-0.223 0.203,-0.187 0.23,-0.16C0.257,-0.133 0.29,-0.12 0.331,-0.12C0.384,-0.12 0.425,-0.145 0.452,-0.194L0.573,-0.128C0.554,-0.085 0.523,-0.052 0.481,-0.028C0.438,-0.004 0.389,0.008 0.332,0.008Z" style="fill:white;fill-rule:nonzero;"/>
                </g>
                <g transform="matrix(280.947,0,0,280.947,2259.02,2838.52)">
                    <path d="M0.303,-0.211L0.228,-0.137L0.228,0L0.072,0L0.072,-0.742L0.228,-0.742L0.228,-0.322L0.456,-0.538L0.642,-0.538L0.418,-0.31L0.662,0L0.473,0L0.303,-0.211Z" style="fill:white;fill-rule:nonzero;"/>
                </g>
            </g>
            <g id="_2020" serif:id="2020" transform="matrix(1,0,0,1,-65.8917,79.8157)">
                <g transform="matrix(293.364,0,0,293.364,1672.71,3159.47)">
                    <path d="M0.562,-0.132L0.562,0L0.033,0L0.033,-0.105L0.303,-0.36C0.332,-0.387 0.351,-0.411 0.361,-0.431C0.371,-0.45 0.376,-0.47 0.376,-0.489C0.376,-0.517 0.367,-0.539 0.347,-0.554C0.329,-0.569 0.301,-0.576 0.264,-0.576C0.233,-0.576 0.206,-0.57 0.181,-0.559C0.156,-0.547 0.136,-0.529 0.119,-0.506L0.001,-0.582C0.028,-0.623 0.066,-0.655 0.114,-0.678C0.162,-0.701 0.217,-0.712 0.279,-0.712C0.331,-0.712 0.377,-0.704 0.416,-0.687C0.455,-0.67 0.485,-0.646 0.506,-0.615C0.528,-0.584 0.539,-0.547 0.539,-0.505C0.539,-0.467 0.531,-0.431 0.515,-0.398C0.499,-0.365 0.468,-0.327 0.422,-0.284L0.261,-0.132L0.562,-0.132Z" style="fill:white;fill-rule:nonzero;"/>
                </g>
                <g transform="matrix(293.364,0,0,293.364,1845.21,3159.47)">
                    <path d="M0.339,0.012C0.281,0.012 0.229,-0.002 0.184,-0.031C0.139,-0.06 0.103,-0.101 0.078,-0.156C0.052,-0.21 0.039,-0.275 0.039,-0.35C0.039,-0.425 0.052,-0.49 0.078,-0.545C0.103,-0.599 0.139,-0.64 0.184,-0.669C0.229,-0.698 0.281,-0.712 0.339,-0.712C0.397,-0.712 0.449,-0.698 0.494,-0.669C0.539,-0.64 0.575,-0.599 0.601,-0.545C0.626,-0.49 0.639,-0.425 0.639,-0.35C0.639,-0.275 0.626,-0.21 0.601,-0.156C0.575,-0.101 0.539,-0.06 0.494,-0.031C0.449,-0.002 0.397,0.012 0.339,0.012ZM0.339,-0.125C0.382,-0.125 0.415,-0.143 0.44,-0.18C0.464,-0.217 0.476,-0.273 0.476,-0.35C0.476,-0.427 0.464,-0.483 0.44,-0.52C0.415,-0.557 0.382,-0.575 0.339,-0.575C0.297,-0.575 0.264,-0.557 0.239,-0.52C0.215,-0.483 0.203,-0.427 0.203,-0.35C0.203,-0.273 0.215,-0.217 0.239,-0.18C0.264,-0.143 0.297,-0.125 0.339,-0.125Z" style="fill:white;fill-rule:nonzero;"/>
                </g>
                <g transform="matrix(293.364,0,0,293.364,2042.64,3159.47)">
                    <path d="M0.562,-0.132L0.562,0L0.033,0L0.033,-0.105L0.303,-0.36C0.332,-0.387 0.351,-0.411 0.361,-0.431C0.371,-0.45 0.376,-0.47 0.376,-0.489C0.376,-0.517 0.367,-0.539 0.347,-0.554C0.329,-0.569 0.301,-0.576 0.264,-0.576C0.233,-0.576 0.206,-0.57 0.181,-0.559C0.156,-0.547 0.136,-0.529 0.119,-0.506L0.001,-0.582C0.028,-0.623 0.066,-0.655 0.114,-0.678C0.162,-0.701 0.217,-0.712 0.279,-0.712C0.331,-0.712 0.377,-0.704 0.416,-0.687C0.455,-0.67 0.485,-0.646 0.506,-0.615C0.528,-0.584 0.539,-0.547 0.539,-0.505C0.539,-0.467 0.531,-0.431 0.515,-0.398C0.499,-0.365 0.468,-0.327 0.422,-0.284L0.261,-0.132L0.562,-0.132Z" style="fill:white;fill-rule:nonzero;"/>
                </g>
                <g transform="matrix(293.364,0,0,293.364,2215.14,3159.47)">
                    <path d="M0.339,0.012C0.281,0.012 0.229,-0.002 0.184,-0.031C0.139,-0.06 0.103,-0.101 0.078,-0.156C0.052,-0.21 0.039,-0.275 0.039,-0.35C0.039,-0.425 0.052,-0.49 0.078,-0.545C0.103,-0.599 0.139,-0.64 0.184,-0.669C0.229,-0.698 0.281,-0.712 0.339,-0.712C0.397,-0.712 0.449,-0.698 0.494,-0.669C0.539,-0.64 0.575,-0.599 0.601,-0.545C0.626,-0.49 0.639,-0.425 0.639,-0.35C0.639,-0.275 0.626,-0.21 0.601,-0.156C0.575,-0.101 0.539,-0.06 0.494,-0.031C0.449,-0.002 0.397,0.012 0.339,0.012ZM0.339,-0.125C0.382,-0.125 0.415,-0.143 0.44,-0.18C0.464,-0.217 0.476,-0.273 0.476,-0.35C0.476,-0.427 0.464,-0.483 0.44,-0.52C0.415,-0.557 0.382,-0.575 0.339,-0.575C0.297,-0.575 0.264,-0.557 0.239,-0.52C0.215,-0.483 0.203,-0.427 0.203,-0.35C0.203,-0.273 0.215,-0.217 0.239,-0.18C0.264,-0.143 0.297,-0.125 0.339,-0.125Z" style="fill:white;fill-rule:nonzero;"/>
                </g>
            </g>
        </g>
        <g id="Logo" transform="matrix(2.22636e-15,36.3592,-42.3243,2.59162e-15,46015.8,-61660.8)">
            <g transform="matrix(0.596248,1.26615e-32,1.5058e-32,1,794.058,-312.536)">
                <rect x="1569.7" y="1351" width="44" height="3" style="fill:rgb(45,62,80);"/>
            </g>
            <g transform="matrix(0.46841,9.10898e-33,-6.16298e-33,1,997.538,-306.724)">
                <rect x="1569.7" y="1340" width="44" height="3" style="fill:white;"/>
            </g>
            <g transform="matrix(0.814864,0,-1.2326e-32,1,446.086,-300.913)">
                <rect x="1569.7" y="1329" width="44" height="3" style="fill:rgb(45,62,80);"/>
            </g>
            <g transform="matrix(0.183401,1.80995e-32,-1.09891e-32,1,1451.19,-317.102)">
                <rect x="1569.7" y="1340" width="44" height="3" style="fill:white;"/>
            </g>
            <g transform="matrix(0.567426,1.2326e-32,-2.46519e-32,1,839.933,-291.78)">
                <rect x="1569.7" y="1351" width="44" height="3" style="fill:rgb(45,62,80);"/>
            </g>
            <g transform="matrix(0.739008,-1.84889e-32,-2.46519e-32,1,566.826,-285.969)">
                <rect x="1569.7" y="1340" width="44" height="3" style="fill:rgb(45,62,80);"/>
            </g>
            <g transform="matrix(1,0,-2.46519e-32,1,151.406,-280.158)">
                <rect x="1569.7" y="1329" width="44" height="3" style="fill:white;"/>
            </g>
            <g transform="matrix(0.849742,6.16298e-33,-2.46519e-32,1,390.572,-285.347)">
                <rect x="1569.7" y="1329" width="44" height="3" style="fill:rgb(45,62,80);"/>
            </g>
            <g transform="matrix(0.596248,0,1.2326e-32,1,794.058,-333.291)">
                <rect x="1569.7" y="1351" width="44" height="3" style="fill:rgb(45,62,80);"/>
            </g>
            <g transform="matrix(0.183401,1.84889e-32,-2.46519e-32,1,1451.19,-275.591)">
                <path d="M1569.7,1340L1613.7,1340L1613.7,1343L1569.7,1343L1569.7,1340Z" style="fill:white;"/>
            </g>
            <g transform="matrix(0.140144,2.00297e-32,-2.46519e-32,1,1520.04,-327.48)">
                <rect x="1569.7" y="1340" width="44" height="3" style="fill:rgb(45,62,80);"/>
            </g>
        </g>
    </g>
</svg>
