<?xml version="1.0" encoding="UTF-8" standalone="no"?>
<!-- Created with Inkscape (http://www.inkscape.org/) -->

<svg
   xmlns:dc="http://purl.org/dc/elements/1.1/"
   xmlns:cc="http://creativecommons.org/ns#"
   xmlns:rdf="http://www.w3.org/1999/02/22-rdf-syntax-ns#"
   xmlns:svg="http://www.w3.org/2000/svg"
   xmlns="http://www.w3.org/2000/svg"
   xmlns:sodipodi="http://sodipodi.sourceforge.net/DTD/sodipodi-0.dtd"
   xmlns:inkscape="http://www.inkscape.org/namespaces/inkscape"
   width="40.172321mm"
   height="40.714993mm"
   viewBox="0 0 40.172321 40.714993"
   version="1.1"
   id="svg4472"
   sodipodi:docname="hr_logo_white_letters.svg"
   inkscape:version="0.92.4 (5da689c313, 2019-01-14)">
  <defs
     id="defs4466" />
  <sodipodi:namedview
     id="base"
     pagecolor="#ffffff"
     bordercolor="#666666"
     borderopacity="1.0"
     inkscape:pageopacity="0.0"
     inkscape:pageshadow="2"
     inkscape:zoom="0.7"
     inkscape:cx="209.23046"
     inkscape:cy="-281.20071"
     inkscape:document-units="mm"
     inkscape:current-layer="layer1"
     showgrid="false"
     inkscape:window-width="1920"
     inkscape:window-height="1017"
     inkscape:window-x="2552"
     inkscape:window-y="93"
     inkscape:window-maximized="1"
     fit-margin-top="0"
     fit-margin-left="0"
     fit-margin-right="0"
     fit-margin-bottom="0" />
  <metadata
     id="metadata4469">
    <rdf:RDF>
      <cc:Work
         rdf:about="">
        <dc:format>image/svg+xml</dc:format>
        <dc:type
           rdf:resource="http://purl.org/dc/dcmitype/StillImage" />
        <dc:title></dc:title>
      </cc:Work>
    </rdf:RDF>
  </metadata>
  <g
     inkscape:label="Layer 1"
     inkscape:groupmode="layer"
     id="layer1"
     transform="translate(-78.187648,-34.737742)">
    <path
       inkscape:connector-curvature="0"
       id="path328"
       style="fill:#ef3120;fill-opacity:1;fill-rule:nonzero;stroke:none;stroke-width:0.35277775"
       d="m 105.4549,58.111669 c 0.0716,-0.192264 0.13476,-0.388409 0.19121,-0.588081 l 4.9209,1.701095 c 0.70979,-2.2987 0.79057,-4.819298 0.0903,-7.306028 -0.22331,-0.790575 -0.51577,-1.542344 -0.86854,-2.252133 l 2.26095,-0.99942 c -0.80504,-1.649941 -1.91664,-3.183819 -3.3408,-4.509205 -1.42628,-1.327856 -3.03848,-2.329392 -4.74381,-3.015544 l -2.60244,7.232297 c -0.33655,-0.150637 -0.6865,-0.277989 -1.04845,-0.379942 l 1.42839,-5.005564 c -1.786112,-0.508 -3.699582,-0.635353 -5.621512,-0.317147 l 0.34008,2.163586 c -0.34573,0.0575 -0.69039,0.132997 -1.03294,0.225425 l -0.98954,-4.558594 c -2.77706,0.699911 -5.39185,2.178402 -7.48947,4.430536 -2.09621,2.25178 -3.38526,4.965347 -3.88585,7.785099 l 2.4504,0.35172 c -0.0628,0.33655 -0.11607,0.675216 -0.15205,1.017764 l 2.19251,0.154164 c -0.0893,0.797983 -0.0928,1.608666 7.2e-4,2.417938 l 6.51016,-0.975783 c -0.0212,-0.348192 0.002,-0.698853 0.0677,-1.042811 0.007,-0.03528 0.0148,-0.07056 0.0226,-0.105481 0.008,-0.03598 0.0176,-0.07161 0.0265,-0.107597 0.0236,-0.09631 0.0501,-0.191911 0.0808,-0.286455 0.0138,-0.04304 0.0286,-0.08573 0.0441,-0.128059 0.0349,-0.09737 0.0741,-0.193322 0.11642,-0.287866 0.0155,-0.03457 0.03,-0.0695 0.0462,-0.103717 0.0589,-0.121708 0.12312,-0.241653 0.19438,-0.358422 0.009,-0.01446 0.0183,-0.02858 0.0272,-0.04304 0.0759,-0.120297 0.15734,-0.238831 0.24659,-0.353131 0.0159,-0.02011 0.0307,-0.04057 0.0473,-0.06103 0.06,-0.07373 0.12206,-0.146403 0.18803,-0.217311 0.44767,-0.481189 0.98354,-0.826206 1.55892,-1.045634 0.10548,-0.04022 0.21096,-0.08008 0.31856,-0.111477 0.0166,-0.0046 0.0332,-0.0081 0.0494,-0.01305 0.12665,-0.03528 0.25471,-0.06421 0.38382,-0.08714 0.012,-0.0025 0.0236,-0.0049 0.0356,-0.0071 0.0508,-0.0088 0.10231,-0.01199 0.15346,-0.0187 0.0864,-0.01129 0.17251,-0.02328 0.25965,-0.02928 0.024,-0.0018 0.048,-0.0032 0.072,-0.0042 0.0684,-0.0035 0.13687,-0.0018 0.20496,-0.0018 0.0699,0 0.1397,-0.0035 0.20955,-3.44e-4 0.008,3.44e-4 0.0155,0.0014 0.0233,0.0018 0.13194,0.0074 0.26352,0.02152 0.3944,0.04127 0.0212,0.0032 0.0423,0.0056 0.0632,0.0092 0.13723,0.02293 0.27305,0.05292 0.40782,0.08925 0.31256,0.08502 0.61771,0.206727 0.908052,0.366536 0.0388,0.02117 0.0776,0.04304 0.11571,0.06562 0.0427,0.0254 0.085,0.05186 0.127,0.07867 0.0815,0.05221 0.16122,0.10795 0.23989,0.166158 0.003,0.0025 0.007,0.0046 0.01,0.0074 0.0226,0.01693 0.0455,0.03387 0.0677,0.05115 0.0942,0.07373 0.18697,0.149931 0.27657,0.232834 0.10019,0.09349 0.19227,0.192264 0.28152,0.292805 0.0201,0.02258 0.0406,0.04516 0.06,0.06844 0.0783,0.09243 0.15134,0.188031 0.22049,0.28575 0.006,0.0088 0.0127,0.01764 0.019,0.02681 0.0155,0.02258 0.0307,0.04551 0.0459,0.06844 0.0642,0.09666 0.12558,0.195086 0.18097,0.295628 0.0123,0.02258 0.0243,0.04586 0.0363,0.06844 0.0607,0.115358 0.11748,0.23248 0.16651,0.351719 0.002,0.0046 0.004,0.0092 0.005,0.01376 0.0483,0.118181 0.0892,0.238831 0.1263,0.360187 0.006,0.02117 0.0134,0.04198 0.0194,0.06315 0.0317,0.110772 0.0572,0.222955 0.0797,0.335491 0.008,0.04304 0.0159,0.08643 0.0233,0.129823 0.0159,0.09454 0.0282,0.189794 0.0374,0.285044 0.004,0.03669 0.008,0.07302 0.0106,0.109714 0.008,0.113242 0.0106,0.226483 0.009,0.339725 -7.2e-4,0.03704 3.4e-4,0.07373 -0.001,0.110772 -0.004,0.08855 -0.01,0.177095 -0.0187,0.265289 -0.006,0.05503 -0.0141,0.109714 -0.0219,0.164747 -0.006,0.0441 -0.0127,0.08819 -0.0205,0.131939 -0.01,0.0568 -0.0208,0.113242 -0.0332,0.169686 -0.0363,0.165453 -0.0829,0.328436 -0.1397,0.489303 -0.037,0.105128 -0.079,0.209197 -0.12453,0.311856 -0.01,0.02117 -0.018,0.04304 -0.0279,0.0642 -0.17957,0.385233 -0.42016,0.749653 -0.72602,1.077031 -0.018,0.01976 -0.037,0.03845 -0.0557,0.0575 -0.38594,0.398639 -0.83257,0.703792 -1.311986,0.915106 -0.025,0.01093 -0.0512,0.01976 -0.0762,0.03069 -0.0614,0.0254 -0.12312,0.05045 -0.18556,0.07267 -0.0808,0.02928 -0.16263,0.05468 -0.24483,0.07902 -0.0198,0.0056 -0.0388,0.0127 -0.0586,0.01799 -0.11606,0.0321 -0.23319,0.05785 -0.35101,0.07973 -0.0508,0.0095 -0.10196,0.01587 -0.15311,0.02363 -0.0815,0.01199 -0.16334,0.02187 -0.24518,0.02893 -0.0501,0.0042 -0.10054,0.0085 -0.15064,0.01129 -0.10759,0.0053 -0.21484,0.0067 -0.32244,0.0035 -0.0219,-3.44e-4 -0.0441,7.15e-4 -0.066,0 -0.12982,-0.0056 -0.25964,-0.0187 -0.38876,-0.03669 -0.19755,-0.02681 -0.3937,-0.06597 -0.58667,-0.121356 l -4.43582,10.347677 c 3.93876,1.532467 8.363306,1.375482 12.183186,-0.434268 l -1.13454,-2.199569 c 0.81386,-0.379238 1.57621,-0.834673 2.27683,-1.358548 l -1.37726,-1.705994 c 0.45368,-0.333727 0.87278,-0.699911 1.26013,-1.091142 l 3.30693,3.283302 c 0.1136,-0.114652 0.22896,-0.228246 0.34008,-0.347485 1.3716,-1.472494 2.39466,-3.143602 3.08116,-4.911726 z" />
    <path
       inkscape:connector-curvature="0"
       id="path332"
       style="fill:#ef3120;fill-opacity:1;fill-rule:nonzero;stroke:none;stroke-width:0.35277775"
       d="m 94.560488,62.224775 1.5815,-3.19405 c -0.26846,-0.154869 -0.52387,-0.341488 -0.76094,-0.560916 -0.0836,-0.07796 -0.16157,-0.159456 -0.23742,-0.242359 -0.0159,-0.01729 -0.031,-0.03563 -0.0466,-0.05327 -0.0942,-0.106186 -0.18097,-0.216606 -0.26246,-0.329847 -0.0212,-0.02963 -0.0406,-0.05997 -0.061,-0.08996 -0.0607,-0.0896 -0.11748,-0.181327 -0.17075,-0.274461 -0.0226,-0.04022 -0.0455,-0.08008 -0.067,-0.121002 -0.0565,-0.107598 -0.10901,-0.216959 -0.15593,-0.328789 -0.0102,-0.02505 -0.0208,-0.04974 -0.0307,-0.07514 -0.0476,-0.12065 -0.09,-0.243417 -0.12594,-0.367947 -0.0152,-0.05221 -0.0307,-0.104422 -0.0437,-0.156986 l -8.503,2.105025 c 0.0282,0.113947 0.0561,0.227541 0.0868,0.341136 l -2.38407,0.655461 c 0.58808,2.132895 1.64253,4.158191 3.1563,5.917847 l 3.55988,-3.012017 c 0.37853,0.437798 0.78599,0.842434 1.22132,1.207559 l 1.97379,-2.278944 c 0.39123,0.32526 0.81562,0.614537 1.27,0.85866" />
    <path
       inkscape:connector-curvature="0"
       id="path336"
       style="fill:#ffffff;fill-opacity:1;fill-rule:nonzero;stroke:none;stroke-width:0.35277775"
       d="m 78.187648,53.740718 0.0487,-0.379942 0.8636,0.110772 0.127,-0.98813 -0.8636,-0.111125 0.0487,-0.379942 2.17135,0.278694 -0.049,0.380295 -0.97931,-0.125942 -0.12665,0.988131 0.97896,0.125941 -0.0487,0.380295 z" />
    <path
       inkscape:connector-curvature="0"
       id="path340"
       style="fill:#ffffff;fill-opacity:1;fill-rule:nonzero;stroke:none;stroke-width:0.35277775"
       d="m 80.160838,50.312916 0.19438,-0.639586 -0.99624,0.04022 -0.003,0.0088 z m -1.22237,-0.512233 0.11853,-0.390172 2.33998,-0.170745 -0.11924,0.392995 -0.61419,0.02822 -0.254,0.836436 0.4946,0.365125 -0.11466,0.37853 z m -0.51224,-0.414867 0.12065,-0.396169 0.29316,0.543983 -0.0741,0.243769 z" />
    <path
       inkscape:connector-curvature="0"
       id="path344"
       style="fill:#ffffff;fill-opacity:1;fill-rule:nonzero;stroke:none;stroke-width:0.35277775"
       d="m 81.256888,47.727196 c 0.30268,0.148167 0.53022,-0.01693 0.66463,-0.2921 0.14817,-0.303036 0.0547,-0.488597 -0.0938,-0.561269 -0.15169,-0.07373 -0.25258,-0.02081 -0.32173,0.0441 -0.11959,0.112183 -0.24306,0.273403 -0.44873,0.506942 -0.25541,0.291394 -0.50765,0.291041 -0.7112,0.191205 -0.3937,-0.192617 -0.40041,-0.645936 -0.22684,-1.001183 0.20073,-0.409928 0.58667,-0.6477 0.9966,-0.447322 l -0.16828,0.344311 c -0.2614,-0.107598 -0.4385,0.01764 -0.55421,0.254352 -0.078,0.159456 -0.11853,0.388762 0.0797,0.485775 0.13758,0.06703 0.2607,0.01129 0.36759,-0.110419 0.0229,-0.02611 0.34855,-0.405694 0.42863,-0.492831 0.20355,-0.221191 0.48436,-0.237419 0.68791,-0.137583 0.44027,0.215195 0.42545,0.69215 0.23425,1.083028 -0.21908,0.448733 -0.61137,0.706967 -1.10278,0.476955 z" />
    <path
       inkscape:connector-curvature="0"
       id="path348"
       style="fill:#ffffff;fill-opacity:1;fill-rule:nonzero;stroke:none;stroke-width:0.35277775"
       d="m 81.350088,44.509474 0.2219,-0.312914 0.8135,0.576792 -0.24906,-1.372306 0.27305,-0.385586 0.20744,1.218847 1.61466,-0.0021 -0.27658,0.390525 -1.26859,-0.0194 0.072,0.43427 0.60043,0.426156 -0.22225,0.312561 z" />
    <path
       inkscape:connector-curvature="0"
       id="path352"
       style="fill:#ffffff;fill-opacity:1;fill-rule:nonzero;stroke:none;stroke-width:0.35277775"
       d="m 84.329578,42.481003 c 0.29669,0.297039 0.72778,0.451556 1.0594,0.120298 0.33196,-0.331259 0.1785,-0.762706 -0.11819,-1.059745 -0.29633,-0.297039 -0.72778,-0.451555 -1.05939,-0.120297 -0.33196,0.331258 -0.17815,0.762706 0.11818,1.059744 m 1.2125,-1.210027 c 0.44133,0.442383 0.53199,1.087966 0.0677,1.551516 -0.4639,0.463198 -1.10983,0.371475 -1.55116,-0.07091 -0.44168,-0.442383 -0.53234,-1.088319 -0.0681,-1.551517 0.46391,-0.463197 1.10984,-0.371475 1.55152,0.07091 m -1.91311,-0.498123 0.2928,-0.2921 0.002,0.617714 -0.18027,0.179564 z" />
    <path
       inkscape:connector-curvature="0"
       id="path356"
       style="fill:#ffffff;fill-opacity:1;fill-rule:nonzero;stroke:none;stroke-width:0.35277775"
       d="m 85.964288,39.520139 0.31115,-0.224014 1.08655,1.507066 0.90276,-0.650875 0.19367,0.268464 -1.21355,0.875242 z" />
    <path
       inkscape:connector-curvature="0"
       id="path360"
       style="fill:#ffffff;fill-opacity:1;fill-rule:nonzero;stroke:none;stroke-width:0.35277775"
       d="m 88.372058,37.939341 0.33549,-0.184856 1.05551,1.916642 -0.33549,0.184855 z" />
    <path
       inkscape:connector-curvature="0"
       id="path364"
       style="fill:#ffffff;fill-opacity:1;fill-rule:nonzero;stroke:none;stroke-width:0.35277775"
       d="m 90.141808,37.033267 0.37712,-0.14605 1.51412,1.142647 0.006,-0.0021 -0.58244,-1.503888 0.34008,-0.131586 0.79093,2.041172 -0.37783,0.14605 -1.51024,-1.140883 -0.008,0.0032 0.58138,1.500716 -0.34043,0.131939 z" />
    <path
       inkscape:connector-curvature="0"
       id="path368"
       style="fill:#ffffff;fill-opacity:1;fill-rule:nonzero;stroke:none;stroke-width:0.35277775"
       d="m 93.380198,35.931119 0.39688,-0.07973 1.29716,1.385005 0.006,-0.0011 -0.31715,-1.581503 0.35807,-0.07197 0.43039,2.147006 -0.39723,0.07938 -1.29363,-1.382536 -0.009,0.0018 0.31644,1.578681 -0.35807,0.07161 z" />
    <path
       inkscape:connector-curvature="0"
       id="path372"
       style="fill:#ffffff;fill-opacity:1;fill-rule:nonzero;stroke:none;stroke-width:0.35277775"
       d="m 98.908018,34.737742 0.41345,0.0127 -0.44838,0.424744 -0.25435,-0.0078 z m -0.25859,0.632883 0.38277,0.01199 -0.0677,2.187223 -0.38276,-0.01199 z" />
    <path
       inkscape:connector-curvature="0"
       id="path376"
       style="fill:#ffffff;fill-opacity:1;fill-rule:nonzero;stroke:none;stroke-width:0.35277775"
       d="m 102.66094,36.877904 0.60783,0.160866 c 0.23425,0.06209 0.39229,-0.01976 0.45121,-0.242358 0.0713,-0.269875 -0.0892,-0.369358 -0.28187,-0.420511 l -0.60219,-0.159103 z m -0.11536,-1.061861 1.01071,0.267758 c 0.46249,0.122414 0.64346,0.398639 0.54857,0.757414 -0.1076,0.4064 -0.41663,0.435328 -0.49107,0.440972 l -0.002,0.006 c 0.12277,0.05151 0.28434,0.195792 0.19579,0.53093 -0.0653,0.245887 -0.0892,0.480837 -0.0321,0.588081 l -0.39719,-0.10513 c -0.0321,-0.106892 -0.001,-0.222603 0.0261,-0.32632 0.10266,-0.388408 0.0684,-0.581378 -0.2727,-0.671689 l -0.5454,-0.144639 -0.23071,0.871714 -0.37077,-0.09807 z" />
    <path
       inkscape:connector-curvature="0"
       id="path380"
       style="fill:#ffffff;fill-opacity:1;fill-rule:nonzero;stroke:none;stroke-width:0.35277775"
       d="m 105.75169,36.815285 1.43828,0.64523 -0.13582,0.301978 -1.08832,-0.487892 -0.2346,0.52317 1.00718,0.451555 -0.12806,0.285398 -1.00717,-0.451556 -0.26247,0.584553 1.10807,0.497064 -0.13546,0.30233 -1.45803,-0.65405 z" />
    <path
       inkscape:connector-curvature="0"
       id="path384"
       style="fill:#ffffff;fill-opacity:1;fill-rule:nonzero;stroke:none;stroke-width:0.35277775"
       d="m 108.28782,39.630981 0.0395,-1.563159 0.37218,0.243064 -0.0511,1.138061 1.01353,-0.509411 0.35948,0.234245 -1.41253,0.66675 -0.46919,0.718608 -0.32103,-0.20955 z" />
    <path
       inkscape:connector-curvature="0"
       id="path388"
       style="fill:#ffffff;fill-opacity:1;fill-rule:nonzero;stroke:none;stroke-width:0.35277775"
       d="m 111.12605,40.046519 0.28329,0.258234 -0.67169,0.736952 1.39276,-0.07973 0.34925,0.318206 -1.23542,0.05715 -0.19474,1.603022 -0.35384,-0.322439 0.17393,-1.256594 -0.43957,0.01834 -0.496,0.543983 -0.28363,-0.258233 z" />
    <path
       inkscape:connector-curvature="0"
       id="path392"
       style="fill:#ffffff;fill-opacity:1;fill-rule:nonzero;stroke:none;stroke-width:0.35277775"
       d="m 113.03635,44.203475 c -0.29528,0.239184 -0.64594,0.405342 -1.04176,-0.0829 -0.29139,-0.359481 -0.17498,-0.698148 0.13441,-0.948973 l 0.0903,-0.07338 0.2413,0.297745 -0.0882,0.07126 c -0.19261,0.15628 -0.26211,0.299508 -0.11536,0.480483 0.15628,0.192617 0.30939,0.143228 0.52141,-0.02822 l 1.1691,-0.947561 0.2413,0.297392 z" />
    <path
       inkscape:connector-curvature="0"
       id="path396"
       style="fill:#ffffff;fill-opacity:1;fill-rule:nonzero;stroke:none;stroke-width:0.35277775"
       d="m 114.22767,45.666092 0.33796,0.576086 0.64559,-0.758825 -0.005,-0.0078 z m 1.20439,-0.550686 0.20637,0.351719 -1.4605,1.833739 -0.20778,-0.353836 0.39546,-0.470253 -0.44168,-0.75318 -0.6036,0.116064 -0.20002,-0.340784 z" />
    <path
       inkscape:connector-curvature="0"
       id="path400"
       style="fill:#ffffff;fill-opacity:1;fill-rule:nonzero;stroke:none;stroke-width:0.35277775"
       d="m 116.47748,47.041642 0.14922,0.369711 -1.40088,1.15817 0.002,0.0053 1.81681,-0.128412 0.1457,0.360892 -2.31035,0.126647 -0.1598,-0.395464 z" />
    <path
       inkscape:connector-curvature="0"
       id="path404"
       style="fill:#ffffff;fill-opacity:1;fill-rule:nonzero;stroke:none;stroke-width:0.35277775"
       d="m 118.25379,50.172192 0.10618,0.400403 -0.53552,-0.30868 -0.0649,-0.246239 z m -0.68086,-0.06738 0.0984,0.370769 -2.11703,0.560211 -0.0981,-0.370416 z" />
    <path
       inkscape:connector-curvature="0"
       id="path408"
       style="fill:#ffffff;fill-opacity:1;fill-rule:nonzero;stroke:none;stroke-width:0.35277775"
       d="m 118.01951,52.047278 0.049,0.379942 -0.98849,0.127 1.11231,0.839964 0.0603,0.468489 -0.9779,-0.755297 -1.18533,1.094669 -0.061,-0.474133 0.94579,-0.844903 -0.34713,-0.270581 -0.7299,0.09384 -0.0487,-0.379941 z" />
    <path
       inkscape:connector-curvature="0"
       id="path412"
       style="fill:#ffffff;fill-opacity:1;fill-rule:nonzero;stroke:none;stroke-width:0.35277775"
       d="m 79.737968,59.589525 0.15522,0.609248 c 0.06,0.23495 0.20849,0.333022 0.43145,0.276225 0.27058,-0.06914 0.2794,-0.257881 0.23001,-0.451203 l -0.15416,-0.60325 z m 0.87101,-0.618066 0.25894,1.01353 c 0.11818,0.463903 -0.0353,0.756003 -0.39511,0.848078 -0.40711,0.103717 -0.58315,-0.152047 -0.62442,-0.214489 l -0.006,0.0014 c 0.0148,0.132645 -0.0325,0.343959 -0.36865,0.429684 -0.24624,0.06315 -0.4632,0.15628 -0.52917,0.258587 l -0.1016,-0.398287 c 0.078,-0.08007 0.19403,-0.109703 0.29775,-0.136162 0.38946,-0.09948 0.54151,-0.223661 0.45437,-0.565502 l -0.1397,-0.546806 -0.87383,0.222956 -0.0945,-0.371475 z" />
    <path
       inkscape:connector-curvature="0"
       id="path416"
       style="fill:#ffffff;fill-opacity:1;fill-rule:nonzero;stroke:none;stroke-width:0.35277775"
       d="m 81.436558,61.782744 0.62547,1.446035 -0.30374,0.131233 -0.47343,-1.094316 -0.52599,0.227541 0.43815,1.012825 -0.28716,0.12418 -0.4378,-1.012825 -0.58808,0.254352 0.4819,1.114073 -0.30374,0.131585 -0.6343,-1.465791 z" />
    <path
       inkscape:connector-curvature="0"
       id="path420"
       style="fill:#ffffff;fill-opacity:1;fill-rule:nonzero;stroke:none;stroke-width:0.35277775"
       d="m 81.778818,65.425776 0.68757,-1.404057 0.23706,0.375709 -0.52105,1.013179 1.13383,-0.04057 0.2286,0.363008 -1.56175,0.01693 -0.72602,0.457554 -0.20425,-0.324204 z" />
    <path
       inkscape:connector-curvature="0"
       id="path424"
       style="fill:#ffffff;fill-opacity:1;fill-rule:nonzero;stroke:none;stroke-width:0.35277775"
       d="m 84.147338,66.517693 0.25223,0.288573 -0.75035,0.65546 1.3917,0.07902 0.3108,0.355249 -1.23296,-0.0829 -0.37535,1.569508 -0.31468,-0.360185 0.31538,-1.228373 -0.43885,-0.03175 -0.55422,0.48401 -0.25223,-0.28857 z" />
    <path
       inkscape:connector-curvature="0"
       id="path428"
       style="fill:#ffffff;fill-opacity:1;fill-rule:nonzero;stroke:none;stroke-width:0.35277775"
       d="m 86.063488,70.512724 c -0.24624,0.289631 -0.56057,0.517173 -1.03929,0.110067 -0.35278,-0.300215 -0.30092,-0.654402 -0.0427,-0.958144 l 0.0755,-0.0889 0.2921,0.248708 -0.0737,0.08608 c -0.16087,0.189442 -0.20285,0.3429 -0.025,0.49389 0.18874,0.160867 0.33055,0.08396 0.50765,-0.123825 l 0.97508,-1.14653 0.2921,0.248357 z" />
    <path
       inkscape:connector-curvature="0"
       id="path432"
       style="fill:#ffffff;fill-opacity:1;fill-rule:nonzero;stroke:none;stroke-width:0.35277775"
       d="m 87.704568,71.490695 0.56621,0.355248 0.22225,-0.97155 -0.008,-0.0049 z m 0.81527,-1.044927 0.34537,0.216604 -0.44979,2.302582 -0.34819,-0.218369 0.13441,-0.600075 -0.74049,-0.464608 -0.48189,0.381704 -0.33514,-0.210254 z" />
    <path
       inkscape:connector-curvature="0"
       id="path436"
       style="fill:#ffffff;fill-opacity:1;fill-rule:nonzero;stroke:none;stroke-width:0.35277775"
       d="m 90.080138,71.368492 0.36407,0.161573 -0.20073,1.805869 0.006,0.0021 1.21497,-1.355374 0.3563,0.158047 -1.57162,1.697212 -0.38947,-0.17286 z" />
    <path
       inkscape:connector-curvature="0"
       id="path440"
       style="fill:#ffffff;fill-opacity:1;fill-rule:nonzero;stroke:none;stroke-width:0.35277775"
       d="m 93.207408,71.906866 0.39617,0.120298 -0.54398,0.293159 -0.24342,-0.07408 z m -0.41486,0.543632 0.36653,0.111477 -0.63606,2.095148 -0.36653,-0.111125 z" />
    <path
       inkscape:connector-curvature="0"
       id="path444"
       style="fill:#ffffff;fill-opacity:1;fill-rule:nonzero;stroke:none;stroke-width:0.35277775"
       d="m 94.392708,72.895596 0.37782,0.06385 -0.16651,0.982133 1.12748,-0.81915 0.46531,0.07867 -1.00718,0.715434 0.70238,1.452385 -0.47166,-0.07973 -0.53269,-1.150408 -0.35984,0.252941 -0.12276,0.72531 -0.37783,-0.06385 z" />
    <path
       inkscape:connector-curvature="0"
       id="path448"
       style="fill:#ffffff;fill-opacity:1;fill-rule:nonzero;stroke:none;stroke-width:0.35277775"
       d="m 98.889248,73.291026 0.38206,-0.03316 0.11042,1.271058 c 0.0254,0.29351 0.0734,0.631119 0.56797,0.588079 0.495302,-0.04304 0.484012,-0.38382 0.458612,-0.676979 l -0.11042,-1.271413 0.38206,-0.03316 0.121,1.396648 c 0.049,0.559152 -0.28434,0.868185 -0.822322,0.915104 -0.53799,0.04657 -0.91969,-0.200377 -0.96802,-0.759883 z" />
    <path
       inkscape:connector-curvature="0"
       id="path452"
       style="fill:#ffffff;fill-opacity:1;fill-rule:nonzero;stroke:none;stroke-width:0.35277775"
       d="m 101.86116,72.934437 0.39193,-0.100894 1.37054,1.311627 0.006,-0.0013 -0.40287,-1.561748 0.35348,-0.09102 0.54646,2.11949 -0.39159,0.101246 -1.36701,-1.309863 -0.009,0.0024 0.40181,1.558573 -0.35313,0.09102 z" />
    <path
       inkscape:connector-curvature="0"
       id="path456"
       style="fill:#ffffff;fill-opacity:1;fill-rule:nonzero;stroke:none;stroke-width:0.35277775"
       d="m 104.7485,72.056374 0.3556,-0.143581 0.82021,2.030238 -0.3556,0.143579 z" />
    <path
       inkscape:connector-curvature="0"
       id="path460"
       style="fill:#ffffff;fill-opacity:1;fill-rule:nonzero;stroke:none;stroke-width:0.35277775"
       d="m 106.0554,71.511296 0.3489,-0.192617 1.31833,1.251302 0.005,-0.0032 -0.34643,-1.787877 0.34114,-0.188383 0.40322,2.27824 -0.37288,0.206375 z" />
    <path
       inkscape:connector-curvature="0"
       id="path464"
       style="fill:#ffffff;fill-opacity:1;fill-rule:nonzero;stroke:none;stroke-width:0.35277775"
       d="m 108.54982,70.027301 1.25095,-0.95885 0.20144,0.262818 -0.9465,0.725665 0.34854,0.455083 0.8763,-0.671335 0.1905,0.248354 -0.8763,0.671338 0.38947,0.508704 0.96414,-0.738717 0.20144,0.262821 -1.26824,0.971902 z" />
    <path
       inkscape:connector-curvature="0"
       id="path468"
       style="fill:#ffffff;fill-opacity:1;fill-rule:nonzero;stroke:none;stroke-width:0.35277775"
       d="m 111.63024,68.718357 0.43286,-0.455435 c 0.16687,-0.175684 0.1711,-0.353484 0.005,-0.511882 -0.20214,-0.192265 -0.36688,-0.09913 -0.50412,0.04516 l -0.42862,0.451201 z m -0.98566,-0.408517 0.71967,-0.757767 c 0.32949,-0.346426 0.65864,-0.372181 0.92745,-0.116768 0.30445,0.289277 0.18168,0.57432 0.15064,0.642408 l 0.004,0.0042 c 0.10442,-0.08291 0.30833,-0.155224 0.5595,0.08325 0.18451,0.175332 0.37854,0.309034 0.50024,0.310447 l -0.28293,0.297743 c -0.10936,-0.02328 -0.19614,-0.105833 -0.2734,-0.179565 -0.29139,-0.276577 -0.47731,-0.339018 -0.72002,-0.08361 l -0.3884,0.408871 0.65299,0.620887 -0.26388,0.277638 z" />
    <path
       inkscape:connector-curvature="0"
       id="path472"
       style="fill:#ffffff;fill-opacity:1;fill-rule:nonzero;stroke:none;stroke-width:0.35277775"
       d="m 113.93155,66.734757 c 0.27764,0.191206 0.52705,0.06103 0.70062,-0.191206 0.19085,-0.277988 0.12594,-0.475192 -0.0106,-0.569029 -0.13899,-0.0956 -0.24659,-0.05786 -0.32456,-0.0039 -0.13511,0.09349 -0.28046,0.23495 -0.51893,0.435682 -0.29528,0.250825 -0.54434,0.213077 -0.73131,0.08467 -0.36124,-0.248356 -0.30092,-0.698148 -0.0773,-1.023762 0.25894,-0.376413 0.67557,-0.554919 1.05163,-0.295979 l -0.21696,0.315735 c -0.24271,-0.14464 -0.43638,-0.04727 -0.58561,0.17004 -0.10054,0.146402 -0.17462,0.367241 0.007,0.492125 0.12594,0.08678 0.25612,0.04974 0.37994,-0.05468 0.0265,-0.02257 0.40464,-0.35066 0.49636,-0.424743 0.23389,-0.188738 0.51435,-0.163338 0.70097,-0.03492 0.40428,0.277635 0.31926,0.747535 0.0723,1.105958 -0.28257,0.411692 -0.70873,0.6096 -1.16134,0.309737 z" />
    <path
       inkscape:connector-curvature="0"
       id="path476"
       style="fill:#ffffff;fill-opacity:1;fill-rule:nonzero;stroke:none;stroke-width:0.35277775"
       d="m 114.06988,63.755337 0.17674,-0.340077 1.94381,1.009296 -0.1771,0.340431 z" />
    <path
       inkscape:connector-curvature="0"
       id="path480"
       style="fill:#ffffff;fill-opacity:1;fill-rule:nonzero;stroke:none;stroke-width:0.35277775"
       d="m 114.72255,62.45147 0.6223,-1.659114 0.31009,0.116417 -0.24447,0.651581 1.73919,0.652285 -0.13441,0.358775 -1.73954,-0.652285 -0.24342,0.648406 z" />
    <path
       inkscape:connector-curvature="0"
       id="path484"
       style="fill:#ffffff;fill-opacity:1;fill-rule:nonzero;stroke:none;stroke-width:0.35277775"
       d="m 117.04302,59.512513 -1.47108,0.529167 0.0917,-0.434975 1.0795,-0.36442 -0.84209,-0.760236 0.0885,-0.419805 1.13242,1.075619 0.83996,0.177094 -0.079,0.375003 z" />
  </g>
</svg>
