<?xml version="1.0" encoding="UTF-8" standalone="no"?>
<!-- Created with Inkscape (http://www.inkscape.org/) -->

<svg
   xmlns:dc="http://purl.org/dc/elements/1.1/"
   xmlns:cc="http://creativecommons.org/ns#"
   xmlns:rdf="http://www.w3.org/1999/02/22-rdf-syntax-ns#"
   xmlns:svg="http://www.w3.org/2000/svg"
   xmlns="http://www.w3.org/2000/svg"
   xmlns:sodipodi="http://sodipodi.sourceforge.net/DTD/sodipodi-0.dtd"
   xmlns:inkscape="http://www.inkscape.org/namespaces/inkscape"
   width="80.288521mm"
   height="19.312397mm"
   viewBox="0 0 80.288521 19.312397"
   version="1.1"
   id="svg8"
   inkscape:version="0.92.3 (2405546, 2018-03-11)"
   sodipodi:docname="icelandic_startups_white.svg">
  <defs
     id="defs2">
    <style
       id="style815">.cls-1,.cls-2{fill:#333;}.cls-1,.cls-3{opacity:0.7;}</style>
  </defs>
  <sodipodi:namedview
     id="base"
     pagecolor="#ffffff"
     bordercolor="#666666"
     borderopacity="1.0"
     inkscape:pageopacity="0.0"
     inkscape:pageshadow="2"
     inkscape:zoom="1.4"
     inkscape:cx="179.80082"
     inkscape:cy="-30.653467"
     inkscape:document-units="mm"
     inkscape:current-layer="layer1"
     showgrid="false"
     fit-margin-top="0"
     fit-margin-left="0"
     fit-margin-right="0"
     fit-margin-bottom="0"
     inkscape:window-width="1920"
     inkscape:window-height="951"
     inkscape:window-x="0"
     inkscape:window-y="27"
     inkscape:window-maximized="1" />
  <metadata
     id="metadata5">
    <rdf:RDF>
      <cc:Work
         rdf:about="">
        <dc:format>image/svg+xml</dc:format>
        <dc:type
           rdf:resource="http://purl.org/dc/dcmitype/StillImage" />
        <dc:title></dc:title>
      </cc:Work>
    </rdf:RDF>
  </metadata>
  <g
     inkscape:label="Layer 1"
     inkscape:groupmode="layer"
     id="layer1"
     transform="translate(-108.77836,-182.26642)">
    <g
       id="g890"
       transform="matrix(0.26458333,0,0,0.26458333,99.235547,174.48548)"
       style="fill:#ffffff">
      <path
         id="path821"
         d="m 217.73,92.72 h -0.27 l -0.43,-0.06 c -2.09,-0.35 -2.49,-0.78 -2.49,-1.46 0,-0.5 0.19,-1.09 1.71,-1.09 a 2.41,2.41 0 0 1 2.15,1.53 0.37,0.37 0 0 0 0.36,0.26 0.52,0.52 0 0 0 0.21,0 l 2.48,-1 a 0.48,0.48 0 0 0 0.3,-0.66 c -0.64,-2.07 -2.64,-3.3 -5.35,-3.3 -3.7,0 -5.9,1.85 -5.9,4.94 0,2.58 1.71,4.29 4.57,4.58 h 0.26 0.25 c 2.07,0.25 2.35,0.83 2.35,1.42 0,0.59 -0.22,1.12 -1.93,1.12 a 2.51,2.51 0 0 1 -2.33,-1.54 c 0,-0.11 -0.08,-0.33 -0.32,-0.33 a 0.65,0.65 0 0 0 -0.24,0.06 l -2.62,1.07 c -0.27,0.12 -0.35,0.36 -0.22,0.71 0.78,2.23 2.73,3.41 5.65,3.41 3.93,0 6.28,-1.85 6.28,-5 0.03,-2.62 -1.53,-4.25 -4.47,-4.66 z"
         class="cls-1"
         inkscape:connector-curvature="0"
         style="opacity:0.7;fill:#ffffff" />
      <path
         id="path823"
         d="m 253,96.92 c -1.82,-3.66 -3.69,-7.45 -5,-10.07 0,-0.08 -0.11,-0.21 -0.35,-0.21 h -0.14 c -0.19,0 -0.38,0 -0.47,0.17 -1.6,3 -5,9.73 -7.22,14.58 a 0.48,0.48 0 0 0 0,0.48 0.39,0.39 0 0 0 0.36,0.17 h 0.15 l 2,-0.1 h 0.53 c 0.44,0 0.7,0.06 0.89,0.06 0.39,0 0.52,-0.14 0.61,-0.38 0.09,-0.24 0.19,-0.48 0.3,-0.74 0.11,-0.26 0.25,-0.64 0.38,-0.94 h 4.81 c 0.21,0.52 0.49,1.22 0.72,1.74 a 0.49,0.49 0 0 0 0.49,0.32 h 4 a 0.38,0.38 0 0 0 0.36,-0.15 c 0.1,-0.15 0,-0.33 -0.06,-0.5 -0.87,-1.35 -1.63,-2.88 -2.36,-4.43 z m -6.8,-0.19 1.07,-2.39 1.11,2.39 z"
         class="cls-1"
         inkscape:connector-curvature="0"
         style="opacity:0.7;fill:#ffffff" />
      <path
         id="path825"
         d="m 270.42,97.92 -1,-1.62 c 1.23,-0.7 1.87,-2.09 1.87,-4 a 4.91,4.91 0 0 0 -5.26,-5.11 h -6.62 c -0.18,0 -0.38,0.11 -0.38,0.44 v 14 c 0,0.16 0,0.44 0.35,0.44 H 263 c 0.37,0 0.42,-0.23 0.42,-0.44 v -3.8 h 2.06 c 0.32,0.5 1.57,2.5 2.19,3.68 0.19,0.39 0.33,0.56 0.66,0.56 h 3.76 a 0.42,0.42 0 0 0 0.4,-0.2 c 0.13,-0.23 0,-0.52 -0.15,-0.75 -0.7,-1.12 -1.34,-2.26 -1.92,-3.2 z m -5.16,-3.51 -1.87,0.06 V 90.8 h 1.85 a 1.53,1.53 0 0 1 1.56,1.73 c 0,1.15 -0.57,1.85 -1.54,1.88 z"
         class="cls-1"
         inkscape:connector-curvature="0"
         style="opacity:0.7;fill:#ffffff" />
      <path
         id="path827"
         d="m 287.84,87.15 h -11.38 a 0.29,0.29 0 0 0 -0.28,0.28 v 2.89 c 0,0.18 0.05,0.39 0.4,0.39 h 3.49 v 11 a 0.3,0.3 0 0 0 0.3,0.3 h 3.8 a 0.29,0.29 0 0 0 0.3,-0.3 v -11 h 3.39 a 0.34,0.34 0 0 0 0.39,-0.39 v -2.71 c 0,-0.13 0,-0.46 -0.41,-0.46 z"
         class="cls-1"
         inkscape:connector-curvature="0"
         style="opacity:0.7;fill:#ffffff" />
      <path
         id="path829"
         d="m 237.5,87.15 h -11.38 a 0.29,0.29 0 0 0 -0.28,0.28 v 2.89 c 0,0.18 0,0.39 0.4,0.39 h 3.49 v 11 a 0.3,0.3 0 0 0 0.3,0.3 h 3.8 a 0.29,0.29 0 0 0 0.3,-0.3 v -11 h 3.39 a 0.34,0.34 0 0 0 0.39,-0.39 v -2.71 c 0,-0.13 0,-0.46 -0.41,-0.46 z"
         class="cls-1"
         inkscape:connector-curvature="0"
         style="opacity:0.7;fill:#ffffff" />
      <path
         id="path831"
         d="m 305.31,87.15 h -3.86 V 97 a 2,2 0 0 1 -4,0 v -9.44 c 0,-0.25 -0.06,-0.41 -0.39,-0.41 h -3.57 c -0.31,0 -0.35,0.19 -0.35,0.37 v 8.84 c 0,3.84 2.28,6 6.26,6 3.98,0 6.23,-2 6.23,-5.83 v -9 c 0.03,-0.12 0.03,-0.38 -0.32,-0.38 z"
         class="cls-1"
         inkscape:connector-curvature="0"
         style="opacity:0.7;fill:#ffffff" />
      <path
         id="path833"
         d="m 318.22,87.15 h -6.42 c -0.25,0 -0.39,0.16 -0.39,0.44 v 14 c 0,0.16 0,0.44 0.35,0.44 h 3.66 a 0.29,0.29 0 0 0 0.3,-0.3 v -3.3 c 0.63,0 2.29,0 2.8,-0.09 3.32,-0.38 5,-2.21 5,-5.42 0,-3.51 -2.08,-5.77 -5.3,-5.77 z m -1,7.6 -1.53,0.06 v -4 h 1.5 a 2,2 0 0 1 0,4 z"
         class="cls-1"
         inkscape:connector-curvature="0"
         style="opacity:0.7;fill:#ffffff" />
      <path
         id="path835"
         d="m 335,92.72 h -0.26 l -0.43,-0.06 c -2.1,-0.35 -2.5,-0.78 -2.5,-1.46 0,-0.5 0.2,-1.09 1.71,-1.09 a 2.4,2.4 0 0 1 2.15,1.53 0.38,0.38 0 0 0 0.37,0.26 0.56,0.56 0 0 0 0.21,0 l 2.47,-1 a 0.48,0.48 0 0 0 0.3,-0.66 c -0.63,-2.07 -2.64,-3.3 -5.35,-3.3 -3.69,0 -5.9,1.85 -5.9,4.94 0,2.58 1.72,4.29 4.57,4.58 h 0.26 0.26 c 2.06,0.25 2.35,0.83 2.35,1.42 0,0.59 -0.21,1.12 -1.91,1.12 A 2.5,2.5 0 0 1 331,97.48 c 0,-0.11 -0.09,-0.33 -0.33,-0.33 a 0.71,0.71 0 0 0 -0.24,0.06 l -2.61,1.07 c -0.28,0.12 -0.35,0.36 -0.22,0.71 0.77,2.23 2.72,3.41 5.64,3.41 3.94,0 6.28,-1.85 6.28,-5 -0.03,-2.64 -1.58,-4.27 -4.52,-4.68 z"
         class="cls-1"
         inkscape:connector-curvature="0"
         style="opacity:0.7;fill:#ffffff" />
      <path
         id="path837"
         d="m 38.8,46.18 h -1.61 c -0.77,0 -1.12,0.36 -1.12,1.16 v 28.42 a 0.94,0.94 0 0 0 1.08,1 h 1.56 c 0.73,0 1.08,-0.33 1.08,-1 V 47.34 c 0,-0.96 -0.54,-1.16 -0.99,-1.16 z"
         class="cls-2"
         inkscape:connector-curvature="0"
         style="fill:#ffffff" />
      <path
         id="path839"
         d="m 82.43,67.72 -1.1,-0.63 A 1.14,1.14 0 0 0 80.7,66.87 c -0.51,0 -0.77,0.41 -1,0.78 -1.6,2.76 -4.44,6.43 -10.6,6.43 A 12.2,12.2 0 0 1 56.94,61.58 c 0,-7 5.3,-12.55 12.07,-12.55 5,0 8.87,2.31 10.49,6.18 a 1.14,1.14 0 0 0 1.4,0.75 l 1.38,-0.48 a 0.87,0.87 0 0 0 0.56,-0.48 1.31,1.31 0 0 0 -0.07,-1.08 11.87,11.87 0 0 0 -4.59,-5.8 16,16 0 0 0 -9.12,-2.55 15.79,15.79 0 0 0 -15.92,16 15.39,15.39 0 0 0 16,16 14.63,14.63 0 0 0 13.59,-8.29 1,1 0 0 0 -0.3,-1.56 z"
         class="cls-2"
         inkscape:connector-curvature="0"
         style="fill:#ffffff" />
      <path
         id="path841"
         d="m 295.74,76.8 c 0.74,0 1.08,-0.33 1.08,-1 V 47.34 c 0,-1 -0.54,-1.16 -1,-1.16 h -1.6 c -0.78,0 -1.12,0.36 -1.12,1.16 v 28.42 a 0.94,0.94 0 0 0 1.07,1 z"
         class="cls-2"
         inkscape:connector-curvature="0"
         style="fill:#ffffff" />
      <path
         id="path843"
         d="m 339.26,69.24 a 1,1 0 0 0 -0.28,-1.52 l -1.1,-0.63 a 1.17,1.17 0 0 0 -0.63,-0.22 c -0.51,0 -0.77,0.41 -1,0.78 -1.6,2.76 -4.45,6.43 -10.6,6.43 a 12.2,12.2 0 0 1 -12.16,-12.5 c 0,-7 5.3,-12.55 12.07,-12.55 4.95,0 8.86,2.31 10.48,6.18 a 1.15,1.15 0 0 0 1.41,0.75 l 1.38,-0.48 a 0.9,0.9 0 0 0 0.56,-0.48 1.35,1.35 0 0 0 -0.07,-1.08 11.87,11.87 0 0 0 -4.59,-5.8 16,16 0 0 0 -9.13,-2.55 15.79,15.79 0 0 0 -15.91,16 15.39,15.39 0 0 0 16,16 14.62,14.62 0 0 0 13.57,-8.33 z"
         class="cls-2"
         inkscape:connector-curvature="0"
         style="fill:#ffffff" />
      <path
         id="path845"
         d="M 115.5,73.35 H 99.28 V 62.11 H 112 c 0.9,0 0.9,-0.87 0.9,-1.34 v -0.86 c 0,-0.38 0,-1.25 -0.9,-1.25 H 99.28 v -9 h 16.09 c 1,0 1,-0.91 1,-1.25 V 47.3 c 0,-0.33 0,-1.12 -1,-1.12 H 96.43 a 0.86,0.86 0 0 0 -0.65,0.23 0.92,0.92 0 0 0 -0.22,0.72 v 28.42 c 0,0.4 0,1.25 1,1.25 h 18.9 c 0.82,0 1.12,-0.32 1.12,-1.16 v -1.09 c 0.04,-0.8 -0.13,-1.2 -1.08,-1.2 z"
         class="cls-2"
         inkscape:connector-curvature="0"
         style="fill:#ffffff" />
      <path
         id="path847"
         d="M 149.83,73.35 H 135.59 V 47.13 c 0,-0.63 -0.29,-1 -0.86,-1 h -1.9 a 0.89,0.89 0 0 0 -1,1 v 28.68 a 0.87,0.87 0 0 0 1,1 h 17 c 1,0 1,-0.73 1,-1.12 v -1.3 c 0.03,-0.92 -0.49,-1.04 -1,-1.04 z"
         class="cls-2"
         inkscape:connector-curvature="0"
         style="fill:#ffffff" />
      <path
         id="path849"
         d="m 212.15,76.8 h 1.77 c 0.63,0 1,-0.35 1,-1 v -22 c 5.62,6.76 17.25,20.75 19,22.84 a 1.41,1.41 0 0 0 1.15,0.59 1,1 0 0 0 1.12,-1 V 47.34 c 0,-0.28 0,-1.16 -1,-1.16 h -1.69 a 0.92,0.92 0 0 0 -1,1 v 22.11 c -3.94,-4.81 -16.71,-20.36 -19.1,-23 a 1.51,1.51 0 0 0 -1.11,-0.49 1,1 0 0 0 -1,1 v 28.9 c -0.13,0.91 0.41,1.1 0.86,1.1 z"
         class="cls-2"
         inkscape:connector-curvature="0"
         style="fill:#ffffff" />
      <path
         id="path851"
         d="m 274,50 a 14.47,14.47 0 0 0 -10,-3.82 h -10.72 c -0.37,0 -0.81,0.19 -0.81,1.08 v 28.5 c 0,0.72 0.41,1 0.81,1 h 10.41 a 14.24,14.24 0 0 0 10.6,-4.43 16.16,16.16 0 0 0 4.07,-11.1 c 0,-4.67 -1.5,-8.59 -4.36,-11.23 z m -10.63,23.4 h -7.21 V 49.63 h 7.3 a 10.94,10.94 0 0 1 7.85,2.91 c 2.08,2 3.18,5.06 3.18,8.73 0.02,7.11 -4.55,12.08 -11.1,12.08 z"
         class="cls-2"
         inkscape:connector-curvature="0"
         style="fill:#ffffff" />
      <path
         id="path853"
         d="M 198.24,65 193.07,54.6 C 192.07,52.49 183,33.86 181.12,30.07 a 1,1 0 0 0 -1,-0.66 1.07,1.07 0 0 0 -1,0.69 C 176.7,35 168.6,51.66 165.64,57.79 L 162.06,65 a 1.13,1.13 0 0 0 -0.11,0.48 V 69 a 0.91,0.91 0 0 0 0.91,0.91 0.88,0.88 0 0 0 0.65,-0.28 l 7.26,-7.67 a 1.58,1.58 0 0 0 0.48,-1 v -5.67 a 1.4,1.4 0 0 1 0.09,-0.53 l 1.54,-3.39 c 0,-0.07 4.29,-8.9 7,-14.63 0.1,-0.23 0.2,-0.43 0.29,-0.62 l 0.21,0.44 0.11,0.23 c 2.7,5.62 6.89,14.51 6.91,14.57 l 1.6,3.39 a 1.33,1.33 0 0 1 0.1,0.54 V 61 a 1.54,1.54 0 0 0 0.39,0.86 l 7.34,7.76 a 0.92,0.92 0 0 0 0.66,0.28 0.92,0.92 0 0 0 0.91,-0.91 V 65.5 A 1.08,1.08 0 0 0 198.24,65 Z"
         class="cls-1"
         inkscape:connector-curvature="0"
         style="opacity:0.7;fill:#ffffff" />
      <g
         id="g861"
         class="cls-3"
         style="opacity:0.7;fill:#ffffff">
        <path
           id="path855"
           d="M 181.4,72.88 H 179 a 0.66,0.66 0 0 0 -0.65,0.65 l 0.72,28 a 0.66,0.66 0 0 0 0.65,0.66 h 1 a 0.66,0.66 0 0 0 0.61,-0.65 l 0.72,-28 a 0.66,0.66 0 0 0 -0.65,-0.66 z"
           class="cls-2"
           inkscape:connector-curvature="0"
           style="fill:#ffffff" />
        <path
           id="path857"
           d="m 185.83,96.82 a 0.66,0.66 0 0 0 0.65,-0.64 l 2.19,-18.75 a 0.66,0.66 0 0 0 -0.65,-0.65 h -2.4 a 0.66,0.66 0 0 0 -0.61,0.64 l -0.74,18.75 a 0.66,0.66 0 0 0 0.61,0.65 z"
           class="cls-2"
           inkscape:connector-curvature="0"
           style="fill:#ffffff" />
        <path
           id="path859"
           d="m 174.45,96.82 a 0.66,0.66 0 0 1 -0.65,-0.64 l -2.19,-18.75 a 0.66,0.66 0 0 1 0.65,-0.65 h 2.4 a 0.66,0.66 0 0 1 0.61,0.64 L 176,96.17 a 0.66,0.66 0 0 1 -0.61,0.65 z"
           class="cls-2"
           inkscape:connector-curvature="0"
           style="fill:#ffffff" />
      </g>
    </g>
  </g>
</svg>
