<?xml version="1.0" encoding="UTF-8" standalone="no"?>
<!DOCTYPE svg PUBLIC "-//W3C//DTD SVG 1.1//EN" "http://www.w3.org/Graphics/SVG/1.1/DTD/svg11.dtd">
<svg width="100%" height="100%" viewBox="0 0 4000 4000" version="1.1" xmlns="http://www.w3.org/2000/svg" xmlns:xlink="http://www.w3.org/1999/xlink" xml:space="preserve" xmlns:serif="http://www.serif.com/" style="fill-rule:evenodd;clip-rule:evenodd;stroke-linejoin:round;stroke-miterlimit:2;">
    <g transform="matrix(1,0,0,1,3337.65,2986.21)">
        <g id="BACKGROUND">
            <path d="M0,-1995.98L-1144.28,-2656.63C-1264.8,-2726.21 -1413.29,-2726.21 -1533.81,-2656.63L-2678.09,-1995.98C-2798.61,-1926.39 -2872.85,-1797.8 -2872.85,-1658.64L-2872.85,-337.337C-2872.85,-198.174 -2798.61,-69.581 -2678.09,0.001L-1533.81,660.651C-1413.29,730.233 -1264.8,730.233 -1144.28,660.651L0,0.001C120.519,-69.581 194.762,-198.174 194.762,-337.337L194.762,-1658.64C194.762,-1797.8 120.519,-1926.39 0,-1995.98" style="fill:rgb(0,145,234);fill-rule:nonzero;"/>
        </g>
    </g>
    <g transform="matrix(1,0,0,1,1998.6,3636.02)">
        <g id="OUTER-BORDER" serif:id="OUTER BORDER">
            <path d="M0,-3295.6C-57.233,-3295.6 -113.683,-3280.47 -163.249,-3251.86L-1307.53,-2591.21C-1357.1,-2562.59 -1398.42,-2521.27 -1427.04,-2471.7C-1455.65,-2422.14 -1470.78,-2365.68 -1470.78,-2308.45L-1470.78,-987.149C-1470.78,-929.916 -1455.65,-873.465 -1427.04,-823.9C-1398.42,-774.335 -1357.1,-733.011 -1307.53,-704.394L-163.249,-43.744C-113.683,-15.126 -57.233,0 0,0C57.233,0 113.683,-15.126 163.249,-43.744L1307.53,-704.394C1357.1,-733.011 1398.42,-774.335 1427.04,-823.9C1455.65,-873.465 1470.78,-929.916 1470.78,-987.149L1470.78,-2308.45C1470.78,-2365.68 1455.65,-2422.14 1427.04,-2471.7C1398.42,-2521.27 1357.1,-2562.59 1307.53,-2591.21L163.249,-3251.86C113.683,-3280.47 57.233,-3295.6 0,-3295.6M0,126.052C-79.329,126.052 -157.574,105.087 -226.275,65.421L-1370.56,-595.23C-1439.26,-634.894 -1496.54,-692.172 -1536.2,-760.873C-1575.87,-829.575 -1596.83,-907.82 -1596.83,-987.149L-1596.83,-2308.45C-1596.83,-2387.78 -1575.87,-2466.03 -1536.2,-2534.73C-1496.54,-2603.43 -1439.26,-2660.71 -1370.56,-2700.37L-226.275,-3361.02C-157.574,-3400.69 -79.329,-3421.65 0,-3421.65C79.33,-3421.65 157.574,-3400.69 226.275,-3361.02L1370.56,-2700.37C1439.26,-2660.71 1496.54,-2603.43 1536.2,-2534.73C1575.87,-2466.03 1596.83,-2387.78 1596.83,-2308.45L1596.83,-987.149C1596.83,-907.82 1575.87,-829.575 1536.2,-760.873C1496.54,-692.172 1439.26,-634.894 1370.56,-595.229L226.275,65.422C157.574,105.087 79.33,126.052 0,126.052" style="fill:rgb(45,62,80);fill-rule:nonzero;"/>
        </g>
    </g>
    <g id="Logo" transform="matrix(2.22636e-15,36.3592,-42.3243,2.59162e-15,46015.8,-61377.9)">
        <g transform="matrix(0.596248,1.26615e-32,1.5058e-32,1,794.058,-312.536)">
            <rect x="1569.7" y="1351" width="44" height="3" style="fill:rgb(45,62,80);"/>
        </g>
        <g transform="matrix(0.46841,9.10898e-33,-6.16298e-33,1,997.538,-306.724)">
            <rect x="1569.7" y="1340" width="44" height="3" style="fill:white;"/>
        </g>
        <g transform="matrix(0.814864,0,-1.2326e-32,1,446.086,-300.913)">
            <rect x="1569.7" y="1329" width="44" height="3" style="fill:rgb(45,62,80);"/>
        </g>
        <g transform="matrix(0.183401,1.80995e-32,-1.09891e-32,1,1451.19,-317.102)">
            <rect x="1569.7" y="1340" width="44" height="3" style="fill:white;"/>
        </g>
        <g transform="matrix(0.567426,1.2326e-32,-2.46519e-32,1,839.933,-291.78)">
            <rect x="1569.7" y="1351" width="44" height="3" style="fill:rgb(45,62,80);"/>
        </g>
        <g transform="matrix(0.739008,-1.84889e-32,-2.46519e-32,1,566.826,-285.969)">
            <rect x="1569.7" y="1340" width="44" height="3" style="fill:rgb(45,62,80);"/>
        </g>
        <g transform="matrix(1,0,-2.46519e-32,1,151.406,-280.158)">
            <rect x="1569.7" y="1329" width="44" height="3" style="fill:white;"/>
        </g>
        <g transform="matrix(0.849742,6.16298e-33,-2.46519e-32,1,390.572,-285.347)">
            <rect x="1569.7" y="1329" width="44" height="3" style="fill:rgb(45,62,80);"/>
        </g>
        <g transform="matrix(0.596248,0,1.2326e-32,1,794.058,-333.291)">
            <rect x="1569.7" y="1351" width="44" height="3" style="fill:rgb(45,62,80);"/>
        </g>
        <g transform="matrix(0.183401,1.84889e-32,-2.46519e-32,1,1451.19,-275.591)">
            <path d="M1569.7,1340L1613.7,1340L1613.7,1343L1569.7,1343L1569.7,1340Z" style="fill:white;"/>
        </g>
        <g transform="matrix(0.140144,2.00297e-32,-2.46519e-32,1,1520.04,-327.48)">
            <rect x="1569.7" y="1340" width="44" height="3" style="fill:rgb(45,62,80);"/>
        </g>
    </g>
</svg>
