<?xml version="1.0" encoding="UTF-8" standalone="no"?>
<!-- Created with Inkscape (http://www.inkscape.org/) -->

<svg
   xmlns:dc="http://purl.org/dc/elements/1.1/"
   xmlns:cc="http://creativecommons.org/ns#"
   xmlns:rdf="http://www.w3.org/1999/02/22-rdf-syntax-ns#"
   xmlns:svg="http://www.w3.org/2000/svg"
   xmlns="http://www.w3.org/2000/svg"
   xmlns:sodipodi="http://sodipodi.sourceforge.net/DTD/sodipodi-0.dtd"
   xmlns:inkscape="http://www.inkscape.org/namespaces/inkscape"
   width="118.8648mm"
   height="19.151493mm"
   viewBox="0 0 118.8648 19.151493"
   version="1.1"
   id="svg8"
   inkscape:version="0.92.3 (2405546, 2018-03-11)"
   sodipodi:docname="margt_smatt_logo.svg">
  <defs
     id="defs2" />
  <sodipodi:namedview
     id="base"
     pagecolor="#ffffff"
     bordercolor="#666666"
     borderopacity="1.0"
     inkscape:pageopacity="0.0"
     inkscape:pageshadow="2"
     inkscape:zoom="1.979899"
     inkscape:cx="171.24734"
     inkscape:cy="15.170311"
     inkscape:document-units="mm"
     inkscape:current-layer="g20"
     showgrid="false"
     fit-margin-top="0"
     fit-margin-left="0"
     fit-margin-right="0"
     fit-margin-bottom="0"
     inkscape:window-width="1920"
     inkscape:window-height="951"
     inkscape:window-x="0"
     inkscape:window-y="27"
     inkscape:window-maximized="1" />
  <metadata
     id="metadata5">
    <rdf:RDF>
      <cc:Work
         rdf:about="">
        <dc:format>image/svg+xml</dc:format>
        <dc:type
           rdf:resource="http://purl.org/dc/dcmitype/StillImage" />
        <dc:title></dc:title>
      </cc:Work>
    </rdf:RDF>
  </metadata>
  <g
     inkscape:label="Layer 1"
     inkscape:groupmode="layer"
     id="layer1"
     transform="translate(-47.208141,-114.09996)">
    <g
       transform="matrix(0.35277777,0,0,-0.35277777,2.3452343,295.06548)"
       inkscape:label="margtsmatt"
       id="g18">
      <g
         id="g20">
        <g
           transform="translate(-1.9975524,64.884226)"
           id="g24">
          <path
             inkscape:connector-curvature="0"
             id="path26"
             style="fill:#ffffff;fill-opacity:1;fill-rule:nonzero;stroke:none"
             d="m 418.8467,436.4164 c -2.7788,2.6524 -6.2793,3.9435 -10.4834,3.9435 -4.6607,0 -8.4847,-1.6103 -11.3876,-4.9195 -2.7856,-3.1708 -4.2055,-7.1184 -4.2055,-11.8446 0,-4.4583 1.3552,-8.2145 4.0076,-11.2575 2.6538,-3.0452 6.2175,-4.5975 10.6841,-4.5975 2.7178,0 5.0491,0.915 6.9783,2.7893 v -2.0112 h 8.5419 v 17.6715 c 0,4.2077 -1.3433,7.5682 -4.1354,10.226 z m -4.1395,-13.3121 v 0 c 0,-4.712 -2.9973,-8.5671 -6.6636,-8.5671 -3.6692,0 -6.6705,3.8551 -6.6705,8.5671 v 2.1518 c 0,4.7143 3.0013,8.5612 6.6705,8.5612 3.6663,0 6.6636,-3.8469 6.6636,-8.5612 z m -245.3519,-14.627 v 19.6253 c 0,1.6067 -0.5436,2.8758 -1.6208,3.8776 -1.1336,1.0026 -2.4752,1.5403 -4.0833,1.5403 -1.9415,0 -3.3458,-0.4045 -4.2168,-1.2019 -0.8771,-0.8776 -1.3456,-2.2841 -1.3456,-4.216 v -19.6253 h -8.8291 v 19.6253 c 0,1.6067 -0.5437,2.8758 -1.6041,3.8776 -1.1509,1.0026 -2.4838,1.5403 -4.091,1.5403 -1.9466,0 -3.3531,-0.4045 -4.2197,-1.2019 -0.8725,-0.8776 -1.3368,-2.2841 -1.3368,-4.216 v -19.6253 h -8.8401 v 21.232 c 0,3.4067 1.6067,6.0971 4.8243,8.0978 2.7485,1.7413 5.9595,2.5492 9.5723,2.5492 3.9518,0 7.2893,-1.2133 10.0443,-3.5502 2.2121,2.3369 5.5579,3.5502 10.0423,3.5502 3.5538,0 6.7649,-0.8079 9.5794,-2.5492 3.2831,-2.0007 4.8855,-4.6911 4.8855,-8.0978 v -21.232 z m 150.9177,0.0677 h -12.4543 v 6.0939 h 13.6125 c 7.0529,0 7.8101,4.2443 1.3544,5.9162 -4.7381,1.22 -8.4727,2.257 -10.0102,2.9866 -3.3523,1.6067 -5.0273,3.9518 -5.0273,6.9687 0,3.2817 1.7456,5.8232 5.1545,7.636 2.7508,1.4728 5.9678,2.2099 9.5171,2.2099 h 11.7127 v -6.8996 h -11.52 c -5.0133,0 -6.9956,-3.4492 -1.4771,-4.9992 4.4592,-1.2577 8.3775,-2.4361 10.0548,-3.3091 3.3536,-1.7385 5.0267,-4.013 5.0267,-6.893 0,-6.4928 -5.2915,-9.7104 -15.9438,-9.7104 z m 59.5913,-0.0677 v 19.6253 c 0,1.6067 -0.5252,2.8758 -1.5998,3.8776 -1.1413,1.0026 -2.4764,1.5403 -4.0845,1.5403 -1.9411,0 -3.3536,-0.4045 -4.2196,-1.2019 -0.8762,-0.8776 -1.3448,-2.2841 -1.3448,-4.216 v -19.6253 h -8.8336 v 19.6253 c 0,1.6067 -0.5383,2.8758 -1.6154,3.8776 -1.1336,1.0026 -2.4687,1.5403 -4.0805,1.5403 -1.9437,0 -3.3443,-0.4045 -4.2174,-1.2019 -0.8637,-0.8776 -1.3346,-2.2841 -1.3346,-4.216 v -19.6253 h -8.8497 v 21.232 c 0,3.4067 1.614,6.0971 4.8296,8.0978 2.7394,1.7413 5.9534,2.5492 9.5721,2.5492 3.9532,0 7.2966,-1.2133 10.046,-3.5502 2.2113,2.3369 5.5576,3.5502 10.0479,3.5502 3.5496,0 6.759,-0.8079 9.5738,-2.5492 3.2839,-2.0007 4.886,-4.6911 4.886,-8.0978 v -21.232 z m -147.1132,31.9473 c -4.6809,0 -8.434,-1.1483 -11.1751,-3.4832 -2.946,-2.4806 -4.3571,-6.0265 -4.3571,-10.647 v -17.8171 h 8.7063 v 18.151 c 0,1.8701 0.665,3.4813 2.0067,4.8127 1.3433,1.3462 2.9463,2.0157 4.8192,2.0157 z m 51.6279,-25.117 c -1.2688,0 -2.4695,0.601 -3.6215,1.7464 -1.1313,1.0681 -1.7326,2.2768 -1.7326,3.479 v 13.0589 h 6.4891 v 5.8286 h -15.7932 v -16.8139 c 0,-4.4845 1.2019,-8.0337 3.6796,-10.6484 2.4061,-2.5401 5.8182,-3.8134 10.3136,-3.8134 h 3.8143 v 7.1628 z m 178.5801,0 c -1.271,0 -2.4746,0.601 -3.6155,1.7464 -1.1382,1.0681 -1.7354,2.2768 -1.7354,3.479 v 13.0589 h 6.4882 v 5.6849 h -15.8037 v -16.6702 c 0,-4.4845 1.2087,-8.0337 3.6907,-10.6484 2.4055,-2.5401 5.8195,-3.8134 10.3048,-3.8134 h 3.8194 v 7.1628 z m -20.5574,0 c -1.269,0 -2.4791,0.601 -3.6105,1.7464 -1.1409,1.0681 -1.7427,2.2768 -1.7427,3.479 v 13.0589 h 6.4956 v 5.6849 h -15.8083 v -16.6702 c 0,-4.4845 1.2096,-8.0337 3.6842,-10.6484 2.41,-2.5401 5.8278,-3.8134 10.3122,-3.8134 h 3.8202 v 7.1628 z m -234.0774,21.1088 c -2.7788,2.6524 -6.2798,3.9435 -10.4876,3.9435 -4.6556,0 -8.4705,-1.6103 -11.3856,-4.9195 -2.7819,-3.1708 -4.2032,-7.1184 -4.2032,-11.8446 0,-4.4583 1.3544,-8.2145 4.0084,-11.2575 2.657,-3.0452 6.213,-4.5975 10.6833,-4.5975 2.7155,0 5.0459,0.915 6.9902,2.7893 v -2.0112 h 8.5436 v 17.6715 c 0,4.2077 -1.3589,7.5682 -4.1491,10.226 z m -4.1431,-13.3121 v 0 c 0,-4.712 -2.9959,-8.5671 -6.6591,-8.5671 -3.6618,0 -6.6691,3.8551 -6.6691,8.5671 v 2.1518 c 0,4.7143 3.0073,8.5612 6.6691,8.5612 3.6632,0 6.6591,-3.8469 6.6591,-8.5612 z m 56.6399,13.3121 c -2.7819,2.6524 -6.2801,3.9435 -10.4842,3.9435 -4.6576,0 -8.4727,-1.6103 -11.3899,-4.9195 -2.7819,-3.1708 -4.2055,-7.1184 -4.2055,-11.8446 0,-4.4583 1.3561,-8.2145 4.0114,-11.2575 2.6569,-3.0452 6.216,-4.5975 10.6834,-4.5975 2.7148,0 5.046,0.915 6.9911,2.7893 v -1.495 c -0.1479,-5.5026 -2.5863,-8.2936 -7.2017,-8.2936 h -12.702 v -6.9403 h 12.7006 c 4.3648,0 8.0703,1.2517 11.1759,3.835 3.0481,2.5103 4.5706,5.9468 4.5706,10.2475 v 18.3067 c 0,4.2077 -1.3621,7.5682 -4.1497,10.226 z m -10.8008,-21.8792 v 0 c -3.6655,0 -6.6728,3.8551 -6.6728,8.5671 v 2.1518 c 0,4.7143 3.0073,8.5612 6.6728,8.5612 3.6669,0 6.6608,-3.8469 6.6608,-8.5612 v -2.1518 c 0,-4.712 -2.9939,-8.5671 -6.6608,-8.5671" />
          <path
             inkscape:connector-curvature="0"
             id="path28"
             style="fill:#ffffff;fill-opacity:1;fill-rule:nonzero;stroke:none"
             d="m 402.8295,443.3114 h 10.6982 v 4.7775 h -10.6982 z" />
        </g>
      </g>
    </g>
  </g>
</svg>
